<svg width="76" height="60" viewBox="0 0 76 60" fill="none" xmlns="http://www.w3.org/2000/svg">
<path d="M44.3601 5.06641H9.26217C4.34677 5.06641 0.362061 9.05112 0.362061 13.9665V49.0644C0.362061 53.9798 4.34677 57.9645 9.26217 57.9645H44.3601C49.2754 57.9645 53.2602 53.9798 53.2602 49.0644V13.9665C53.2602 9.05112 49.2754 5.06641 44.3601 5.06641Z" fill="#F7F3F3"/>
<path d="M36.2335 0H17.3885C15.7671 0 14.4527 1.31442 14.4527 2.93584V8.07357C14.4527 9.69499 15.7671 11.0094 17.3885 11.0094H36.2335C37.8549 11.0094 39.1693 9.69499 39.1693 8.07357V2.93584C39.1693 1.31442 37.8549 0 36.2335 0Z" fill="#E0DEDE"/>
<path d="M49.3853 52.4486C39.0504 52.4486 30.6396 44.0378 30.6396 33.7028C30.6396 23.3678 39.0504 14.957 49.3853 14.957C59.7203 14.957 68.1311 23.3678 68.1311 33.7028C68.1311 44.0378 59.7203 52.4486 49.3853 52.4486ZM49.3853 21.5693C42.6937 21.5693 37.2518 27.0112 37.2518 33.7028C37.2518 40.3944 42.6937 45.8363 49.3853 45.8363C56.077 45.8363 61.5188 40.3944 61.5188 33.7028C61.5188 27.0112 56.077 21.5693 49.3853 21.5693Z" fill="#5436EA"/>
<path d="M72.3368 60.0001C71.4904 60.0001 70.6441 59.6761 69.9961 59.0347L57.9353 46.9739C56.6459 45.6846 56.6459 43.5885 57.9353 42.2991C59.2247 41.0097 61.3208 41.0097 62.6102 42.2991L74.6709 54.3598C75.9603 55.6492 75.9603 57.7453 74.6709 59.0347C74.0229 59.6827 73.1766 60.0001 72.3302 60.0001H72.3368Z" fill="#5436EA"/>
</svg>
