<svg width="50" height="50" viewBox="0 0 50 50" fill="none" xmlns="http://www.w3.org/2000/svg">
<circle cx="25" cy="25" r="25" fill="#DD271C"/>
<g clip-path="url(#clip0_865_39774)">
<path d="M38.4902 18.5532C38.1751 17.4014 37.2491 16.4928 36.0734 16.1856C33.9404 15.625 25.3906 15.625 25.3906 15.625C25.3906 15.625 16.8394 15.625 14.7079 16.1856C13.5307 16.4928 12.6046 17.4 12.2895 18.5532C11.7188 20.6412 11.7188 25.0007 11.7188 25.0007C11.7188 25.0007 11.7188 29.3588 12.2895 31.4483C12.6046 32.6015 13.5307 33.5086 14.7079 33.8159C16.8409 34.375 25.3906 34.375 25.3906 34.375C25.3906 34.375 33.9404 34.375 36.0734 33.8159C37.2491 33.5072 38.1766 32.6 38.4902 31.4483C39.061 29.3588 39.061 25.0007 39.061 25.0007C39.061 25.0007 39.061 20.6427 38.4902 18.5532Z" fill="white"/>
<path d="M22.6562 29.0181L29.7612 25.0007L22.6562 20.9819V29.0181Z" fill="#ED2123"/>
</g>
<defs>
<clipPath id="clip0_865_39774">
<rect width="27.3438" height="18.75" fill="white" transform="translate(11.7188 15.625)"/>
</clipPath>
</defs>
</svg>
