<svg width="180" height="30" viewBox="0 0 180 30" fill="none" xmlns="http://www.w3.org/2000/svg">
<circle cx="15" cy="15" r="15" fill="#BDBDBD"/>
<g clip-path="url(#clip0_163_7892)">
<path d="M23.0941 11.1319C22.9051 10.4409 22.3495 9.8957 21.644 9.71136C20.3642 9.375 15.2344 9.375 15.2344 9.375C15.2344 9.375 10.1036 9.375 8.82474 9.71136C8.1184 9.8957 7.56279 10.44 7.37372 11.1319C7.03125 12.3847 7.03125 15.0004 7.03125 15.0004C7.03125 15.0004 7.03125 17.6153 7.37372 18.869C7.56279 19.5609 8.1184 20.1052 8.82474 20.2895C10.1045 20.625 15.2344 20.625 15.2344 20.625C15.2344 20.625 20.3642 20.625 21.644 20.2895C22.3495 20.1043 22.906 19.56 23.0941 18.869C23.4366 17.6153 23.4366 15.0004 23.4366 15.0004C23.4366 15.0004 23.4366 12.3856 23.0941 11.1319Z" fill="#333333"/>
<path d="M13.5934 17.4105L17.8564 15.0001L13.5934 12.5889V17.4105Z" fill="#BDBDBD"/>
</g>
<circle cx="65" cy="15" r="15" fill="#BDBDBD"/>
<path d="M64.105 7.03133H68.0595C68.115 7.02975 68.1689 7.05032 68.2085 7.09146C68.2466 7.13102 68.2687 7.18482 68.2672 7.2402C68.2117 10.541 64.953 11.0679 64.9213 11.0727C64.9118 11.0742 64.9007 11.0758 64.8896 11.0758H60.7116C60.6529 11.0758 60.5975 11.0505 60.5594 11.0078C60.5198 10.9651 60.5008 10.9081 60.5055 10.8495C60.7861 7.54243 64.0717 7.03608 64.105 7.03133ZM71.3182 17.6315H69.6699C69.3513 19.3863 68.1245 22.9687 63.406 22.9687C57.1596 22.9687 57.0312 16.6852 57.0312 16.6852V12.9113C57.0312 12.7974 57.1232 12.7041 57.2389 12.7041H71.3182C72.6782 12.7041 73.7861 13.8085 73.7861 15.1678C73.7861 16.527 72.6797 17.6315 71.3182 17.6315ZM71.2596 13.9573C70.5987 13.9573 70.0614 14.4921 70.0614 15.1535C70.0614 15.815 70.5971 16.3482 71.2596 16.3482C71.9221 16.3482 72.4578 15.8134 72.4578 15.1535C72.4578 14.4937 71.9221 13.9573 71.2596 13.9573Z" fill="#333333"/>
<circle cx="115" cy="15" r="15" fill="#BDBDBD"/>
<g clip-path="url(#clip1_163_7892)">
<path d="M121.763 7.5H108.956C107.322 7.5 106 8.83116 106 10.4682V17.509C106 19.1469 107.322 20.4752 108.956 20.4752H113.369L114.874 22.9251C114.874 22.9251 114.889 22.9556 114.922 22.9956C115.01 23.1471 115.173 23.249 115.36 23.249C115.547 23.249 115.707 23.1461 115.796 22.9984C115.834 22.9546 115.847 22.9241 115.847 22.9241L117.351 20.4743H121.762C123.396 20.4743 124.721 19.146 124.721 17.508V10.4682C124.721 8.83021 123.396 7.5 121.762 7.5" fill="#333333"/>
<path d="M110.158 12.6584C110.158 12.6584 109.647 12.6584 109.182 13.112V11.293H108.037V16.0669H109.194V15.6924C109.194 15.6924 109.467 16.1869 110.157 16.1869C110.157 16.1869 111.772 16.1259 111.772 14.4012C111.772 14.4012 111.712 12.6575 110.157 12.6575M109.905 15.1769C109.498 15.1769 109.169 14.8481 109.169 14.4422C109.169 14.0363 109.498 13.7056 109.905 13.7056C110.312 13.7056 110.641 14.0344 110.641 14.4422C110.641 14.85 110.312 15.1769 109.905 15.1769Z" fill="#BDBDBD"/>
<path d="M112.141 11.1836V12.2899C112.141 12.2899 112.662 12.2661 112.662 13.2418V16.0671H113.768V12.9798C113.768 12.9798 113.815 11.1836 112.141 11.1836Z" fill="#BDBDBD"/>
<path d="M116.47 12.6748C116.47 12.6748 114.576 12.6748 114.576 14.4424C114.576 14.4424 114.516 16.188 116.47 16.188C116.47 16.188 118.407 16.1852 118.407 14.4424C118.407 14.4424 118.471 12.6748 116.47 12.6748ZM116.47 15.177C116.062 15.177 115.734 14.8483 115.734 14.4424C115.734 14.0365 116.061 13.7058 116.47 13.7058C116.879 13.7058 117.206 14.0346 117.206 14.4424C117.206 14.8502 116.877 15.177 116.47 15.177Z" fill="#BDBDBD"/>
<path d="M121.569 12.7867V13.1125C121.569 13.1125 121.239 12.6752 120.607 12.6752C120.607 12.6752 118.986 12.6047 118.986 14.4294C118.986 14.4294 118.969 16.1303 120.562 16.1303C120.562 16.1303 121.212 16.156 121.569 15.6929V15.9607C121.569 15.9607 121.65 16.7982 120.839 16.7982H120.562V17.813H121.009C121.009 17.813 122.684 17.8312 122.684 16.0236V12.7857H121.569V12.7867ZM120.885 15.1774C120.479 15.1774 120.148 14.8487 120.148 14.4427C120.148 14.0368 120.479 13.7062 120.885 13.7062C121.291 13.7062 121.62 14.0349 121.62 14.4427C121.62 14.8506 121.292 15.1774 120.885 15.1774Z" fill="#BDBDBD"/>
</g>
<mask id="mask0_163_7892" style="mask-type:luminance" maskUnits="userSpaceOnUse" x="150" y="0" width="30" height="30">
<path d="M165 30C173.284 30 180 23.2843 180 15C180 6.71573 173.284 0 165 0C156.716 0 150 6.71573 150 15C150 23.2843 156.716 30 165 30Z" fill="white"/>
</mask>
<g mask="url(#mask0_163_7892)">
<path d="M155.991 -0.291016H174.005C177.469 -0.291016 180.286 2.52147 180.286 5.99022V24.0043C180.286 27.473 177.473 30.2855 174.005 30.2855H155.991C152.527 30.2855 149.709 27.473 149.709 24.0043V5.99022C149.709 2.52615 152.522 -0.291016 155.991 -0.291016Z" fill="url(#paint0_radial_163_7892)"/>
<path d="M155.991 -0.291016H174.005C177.469 -0.291016 180.286 2.52147 180.286 5.99022V24.0043C180.286 27.473 177.473 30.2855 174.005 30.2855H155.991C152.527 30.2855 149.709 27.473 149.709 24.0043V5.99022C149.709 2.52615 152.522 -0.291016 155.991 -0.291016Z" fill="#BDBDBD"/>
</g>
<path d="M168.169 6.73633H161.827C159.014 6.73633 156.736 9.01445 156.736 11.8269V18.1691C156.736 20.9816 159.014 23.2598 161.827 23.2598H168.169C170.981 23.2598 173.259 20.9816 173.259 18.1691V11.8269C173.259 9.01445 170.981 6.73633 168.169 6.73633ZM171.675 17.5597C171.675 19.8332 169.833 21.6754 167.564 21.6754H162.441C160.167 21.6754 158.325 19.8332 158.325 17.5597V12.4363C158.325 10.1676 160.167 8.3254 162.441 8.3254H167.564C169.833 8.3254 171.675 10.1676 171.675 12.4363V17.5597Z" fill="#333333"/>
<path d="M165.22 10.6738C162.816 10.6738 160.866 12.6192 160.866 15.0238C160.866 17.4285 162.816 19.3739 165.22 19.3739C167.625 19.3739 169.57 17.4238 169.57 15.0238C169.57 12.6238 167.62 10.6738 165.22 10.6738ZM165.22 17.6442C163.772 17.6442 162.6 16.4723 162.6 15.0285C162.6 13.5848 163.772 12.4082 165.22 12.4082C166.669 12.4082 167.841 13.5801 167.841 15.0285C167.841 16.477 166.669 17.6442 165.22 17.6442Z" fill="#333333"/>
<path d="M170.377 10.6082C170.377 11.2176 169.88 11.7145 169.27 11.7145C168.661 11.7145 168.164 11.2176 168.164 10.6082C168.164 9.99885 168.661 9.50195 169.27 9.50195C169.88 9.50195 170.377 9.99885 170.377 10.6082Z" fill="#333333"/>
<defs>
<radialGradient id="paint0_radial_163_7892" cx="0" cy="0" r="1" gradientUnits="userSpaceOnUse" gradientTransform="translate(156.502 37.2418) scale(40.5142 40.5141)">
<stop offset="0.1" stop-color="#FFD879"/>
<stop offset="0.15" stop-color="#FCCB75"/>
<stop offset="0.26" stop-color="#F4AA6C"/>
<stop offset="0.4" stop-color="#E8745D"/>
<stop offset="0.45" stop-color="#E45F58"/>
<stop offset="0.68" stop-color="#D22A9C"/>
<stop offset="1" stop-color="#6968DF"/>
</radialGradient>
<clipPath id="clip0_163_7892">
<rect width="16.4062" height="11.25" fill="white" transform="translate(7.03125 9.375)"/>
</clipPath>
<clipPath id="clip1_163_7892">
<rect width="18.722" height="15.75" fill="white" transform="translate(106 7.5)"/>
</clipPath>
</defs>
</svg>
