<svg width="50" height="50" viewBox="0 0 50 50" fill="none" xmlns="http://www.w3.org/2000/svg">
<mask id="mask0_865_39781" style="mask-type:luminance" maskUnits="userSpaceOnUse" x="0" y="0" width="50" height="50">
<path d="M25 50C38.8071 50 50 38.8071 50 25C50 11.1929 38.8071 0 25 0C11.1929 0 0 11.1929 0 25C0 38.8071 11.1929 50 25 50Z" fill="white"/>
</mask>
<g mask="url(#mask0_865_39781)">
<path d="M9.98449 -0.484375H40.0079C45.7813 -0.484375 50.4767 4.2031 50.4767 9.98435V40.0078C50.4767 45.789 45.7891 50.4765 40.0079 50.4765H9.98449C4.21105 50.4765 -0.484375 45.789 -0.484375 40.0078V9.98435C-0.484375 4.21091 4.20324 -0.484375 9.98449 -0.484375Z" fill="url(#paint0_radial_865_39781)"/>
</g>
<path d="M30.2814 11.2266H19.711C15.0235 11.2266 11.2266 15.0234 11.2266 19.7109V30.2813C11.2266 34.9688 15.0235 38.7656 19.711 38.7656H30.2814C34.9689 38.7656 38.7656 34.9688 38.7656 30.2813V19.7109C38.7656 15.0234 34.9689 11.2266 30.2814 11.2266ZM36.1251 29.2656C36.1251 33.0547 33.0548 36.125 29.2735 36.125H20.7345C16.9454 36.125 13.8751 33.0547 13.8751 29.2656V20.7265C13.8751 16.9453 16.9454 13.875 20.7345 13.875H29.2735C33.0548 13.875 36.1251 16.9453 36.1251 20.7265V29.2656Z" fill="white"/>
<path d="M25.3672 17.7891C21.3594 17.7891 18.1094 21.0313 18.1094 25.0391C18.1094 29.0469 21.3594 32.2891 25.3672 32.2891C29.375 32.2891 32.6172 29.0391 32.6172 25.0391C32.6172 21.0391 29.3672 17.7891 25.3672 17.7891ZM25.3672 29.4063C22.9532 29.4063 21 27.4532 21 25.0469C21 22.6407 22.9532 20.6797 25.3672 20.6797C27.7813 20.6797 29.7345 22.6329 29.7345 25.0469C29.7345 27.461 27.7813 29.4063 25.3672 29.4063Z" fill="white"/>
<path d="M33.9609 17.6797C33.9609 18.6954 33.1329 19.5235 32.1173 19.5235C31.1016 19.5235 30.2734 18.6954 30.2734 17.6797C30.2734 16.6641 31.1016 15.836 32.1173 15.836C33.1329 15.836 33.9609 16.6641 33.9609 17.6797Z" fill="white"/>
<defs>
<radialGradient id="paint0_radial_865_39781" cx="0" cy="0" r="1" gradientUnits="userSpaceOnUse" gradientTransform="translate(10.836 62.0703) scale(67.5237 67.5234)">
<stop offset="0.1" stop-color="#FFD879"/>
<stop offset="0.15" stop-color="#FCCB75"/>
<stop offset="0.26" stop-color="#F4AA6C"/>
<stop offset="0.4" stop-color="#E8745D"/>
<stop offset="0.45" stop-color="#E45F58"/>
<stop offset="0.68" stop-color="#D22A9C"/>
<stop offset="1" stop-color="#6968DF"/>
</radialGradient>
</defs>
</svg>
