<svg width="50" height="50" viewBox="0 0 50 50" fill="none" xmlns="http://www.w3.org/2000/svg">
<circle cx="25" cy="25" r="25" fill="#01C73C"/>
<path d="M23.5083 11.7189H30.0992C30.1917 11.7163 30.2815 11.7505 30.3475 11.8191C30.4109 11.885 30.4479 11.9747 30.4453 12.067C30.3528 17.5683 24.9216 18.4465 24.8688 18.4544C24.8529 18.4571 24.8344 18.4597 24.816 18.4597H17.8526C17.7549 18.4597 17.6624 18.4175 17.599 18.3463C17.533 18.2751 17.5013 18.1801 17.5092 18.0826C17.9768 12.5707 23.4529 11.7268 23.5083 11.7189ZM35.5304 29.3858H32.7831C32.2521 32.3105 30.2075 38.2812 22.3434 38.2812C11.9327 38.2812 11.7188 27.8087 11.7188 27.8087V21.5189C11.7188 21.329 11.872 21.1734 12.0648 21.1734H35.5304C37.7969 21.1734 39.6434 23.0142 39.6434 25.2796C39.6434 27.545 37.7996 29.3858 35.5304 29.3858ZM35.4327 23.2621C34.3311 23.2621 33.4356 24.1535 33.4356 25.2559C33.4356 26.3583 34.3285 27.247 35.4327 27.247C36.5369 27.247 37.4297 26.3556 37.4297 25.2559C37.4297 24.1561 36.5369 23.2621 35.4327 23.2621Z" fill="white"/>
</svg>
