<svg width="128" height="24" viewBox="0 0 128 24" fill="none" xmlns="http://www.w3.org/2000/svg">
<path d="M20.4717 0H17.8648C17.5684 0 17.3281 0.240884 17.3281 0.53803V23.462C17.3281 23.7591 17.5684 24 17.8648 24H20.4717C20.7681 24 21.0084 23.7591 21.0084 23.462V0.53803C21.0084 0.240884 20.7681 0 20.4717 0Z" fill="black"/>
<path d="M8.98986 0.134277H4.90705C1.64846 0.134277 0 1.90209 0 5.38007V17.9469C0 21.4249 1.64846 23.1927 4.90705 23.1927H8.98986C12.2484 23.1927 13.8969 21.4249 13.8969 17.9469V5.38007C13.8969 1.90209 12.2484 0.134277 8.98986 0.134277ZM10.2358 5.72595V17.5626C10.2358 19.1383 9.75659 19.6955 8.41482 19.6955H5.52043C4.17866 19.6955 3.69945 19.1383 3.69945 17.5626V5.72595C3.69945 4.15029 4.17866 3.59304 5.52043 3.59304H8.41482C9.75659 3.59304 10.2358 4.15029 10.2358 5.72595Z" fill="black"/>
<path d="M28.9205 18.9846V13.7964C28.9205 13.5082 29.1314 13.2776 29.4189 13.2584L37.9871 12.509C38.2746 12.4898 38.4854 12.24 38.4854 11.971V0.941351C38.4854 0.633905 38.2362 0.40332 37.9487 0.40332H25.7961C25.4894 0.40332 25.2594 0.65312 25.2594 0.941351V3.26641C25.2594 3.57386 25.5086 3.80444 25.7961 3.80444H34.2684C34.5751 3.80444 34.8051 4.05424 34.8051 4.34247V8.85808C34.8051 9.14632 34.5943 9.3769 34.3068 9.39611L25.7386 10.1455C25.4511 10.1647 25.2402 10.4145 25.2402 10.6835V22.5779C25.2402 22.8853 25.5086 23.1351 25.8153 23.1159L39.5397 22.3665C39.8464 22.3665 40.0764 22.0975 40.0572 21.79L39.923 19.4458C39.923 19.1383 39.6547 18.9077 39.348 18.9269L29.4956 19.4842C29.1889 19.4842 28.9205 19.2536 28.9205 18.9462V18.9846Z" fill="black"/>
<path d="M45.0795 0H42.4918C42.1851 0 41.9551 0.2498 41.9551 0.53803V23.462C41.9551 23.7694 42.2043 24 42.4918 24H45.0795C45.3862 24 45.6162 23.7502 45.6162 23.462V13.4315C45.6162 13.1241 45.8654 12.8935 46.1529 12.8935H47.878C48.1847 12.8935 48.4147 12.6437 48.4147 12.3555V9.8767C48.4147 9.56926 48.1656 9.33867 47.878 9.33867H46.1529C45.8462 9.33867 45.6162 9.08887 45.6162 8.80064V0.53803C45.6162 0.230584 45.367 0 45.0795 0Z" fill="black"/>
<path d="M64.6867 10.2995H68.7696C71.7981 10.2995 73.3316 9.01204 73.3316 6.45639V4.11212C73.3316 1.55647 71.7981 0.269043 68.7696 0.269043H56.9236C53.8759 0.269043 52.3424 1.55647 52.3424 4.11212V6.45639C52.3424 9.01204 53.8951 10.2995 56.9236 10.2995H61.0065V12.1057H51.8824C51.5757 12.1057 51.3457 12.3555 51.3457 12.6437V14.8919C51.3457 15.1994 51.5949 15.43 51.8824 15.43H73.7724C74.0791 15.43 74.3092 15.1802 74.3092 14.8919V12.6437C74.3092 12.3363 74.06 12.1057 73.7724 12.1057H64.6867V10.2995ZM57.537 7.07128C56.2719 7.07128 56.0227 6.62933 56.0227 5.86072V4.72701C56.0227 3.95839 56.2528 3.53566 57.537 3.53566H68.1178C69.4021 3.53566 69.6513 3.95839 69.6513 4.72701V5.86072C69.6513 6.62933 69.4021 7.07128 68.1178 7.07128H57.537Z" fill="black"/>
<path d="M55.8119 16.6406H53.2242C52.9175 16.6406 52.6875 16.8904 52.6875 17.1787V23.4621C52.6875 23.7695 52.9367 24.0001 53.2242 24.0001H72.8524C73.1591 24.0001 73.3891 23.7503 73.3891 23.4621V21.1178C73.3891 20.8104 73.1399 20.5798 72.8524 20.5798H56.8853C56.5786 20.5798 56.3486 20.33 56.3486 20.0417V17.1979C56.3486 16.8904 56.0994 16.6598 55.8119 16.6598V16.6406Z" fill="black"/>
<path d="M100.984 0H98.5113C98.2149 0 97.9746 0.240884 97.9746 0.53803V23.462C97.9746 23.7591 98.2149 24 98.5113 24H100.984C101.28 24 101.521 23.7591 101.521 23.462V0.53803C101.521 0.240884 101.28 0 100.984 0Z" fill="#5436EA"/>
<path d="M92.5695 9.33864H90.3652V5.38028C90.3652 1.74857 89.0618 0.134479 86.129 0.134479H83.4647C80.5703 0.134479 79.2285 1.80622 79.2285 5.38028V17.9471C79.2285 21.5212 80.5703 23.1929 83.4647 23.1929H86.129C89.0618 23.1929 90.3652 21.5788 90.3652 17.9471V12.8551H92.5695V23.0584C92.5695 23.3659 92.8187 23.5965 93.1063 23.5965H95.5023C95.809 23.5965 96.039 23.3467 96.039 23.0584V0.595648C96.039 0.288202 95.7898 0.0576172 95.5023 0.0576172H93.1063C92.7996 0.0576172 92.5695 0.307417 92.5695 0.595648V9.33864ZM82.7363 5.39949C82.7363 4.0352 83.043 3.59325 84.0206 3.59325H85.6307C86.6466 3.59325 86.9149 3.97755 86.9149 5.39949V17.8895C86.9149 19.3306 86.6466 19.7149 85.6307 19.7149H84.0206C83.0238 19.7149 82.7363 19.2922 82.7363 17.8895V5.39949Z" fill="#5436EA"/>
<path d="M126.504 9.54984H110.46C110.154 9.54984 109.924 9.30004 109.924 9.01181V4.40012C109.924 4.09267 110.173 3.86209 110.46 3.86209H126.255C126.562 3.86209 126.792 3.61229 126.792 3.32406V0.941351C126.792 0.633905 126.542 0.40332 126.255 0.40332H106.742C106.435 0.40332 106.205 0.65312 106.205 0.941351V12.4514C106.205 12.7588 106.454 12.9894 106.742 12.9894H126.485C126.792 12.9894 127.022 12.7396 127.022 12.4514V10.1071C127.022 9.79964 126.772 9.56905 126.485 9.56905L126.504 9.54984Z" fill="#5436EA"/>
<path d="M105.095 15.3144V17.7163C105.095 18.0238 105.344 18.2543 105.631 18.2543H109.503C109.81 18.2543 110.04 18.5041 110.04 18.7924V23.4425C110.04 23.7499 110.289 23.9805 110.577 23.9805H113.164C113.471 23.9805 113.701 23.7307 113.701 23.4425V18.7924C113.701 18.4849 113.95 18.2543 114.238 18.2543H118.877C119.183 18.2543 119.413 18.5041 119.413 18.7924V23.4425C119.413 23.7499 119.662 23.9805 119.95 23.9805H122.538C122.844 23.9805 123.074 23.7307 123.074 23.4425V18.7924C123.074 18.4849 123.324 18.2543 123.611 18.2543H127.464C127.771 18.2543 128.001 18.0045 128.001 17.7163V15.3144C128.001 15.007 127.751 14.7764 127.464 14.7764H105.574C105.267 14.7764 105.037 15.0262 105.037 15.3144H105.095Z" fill="#5436EA"/>
</svg>
