<svg width="65" height="30" viewBox="0 0 65 30" fill="none" xmlns="http://www.w3.org/2000/svg">
<path d="M2.38773 7.32931H6.12126C6.29491 7.32931 6.42515 7.18816 6.42515 7.02529V5.66806C6.42515 5.49434 6.28406 5.36404 6.12126 5.36404H2.38773C2.21407 5.36404 2.08383 5.22289 2.08383 5.06002V2.34557C2.08383 2.17185 2.22493 2.04155 2.38773 2.04155H6.46856C6.64222 2.04155 6.77246 1.9004 6.77246 1.73753V0.369448C6.77246 0.195723 6.63136 0.0654297 6.46856 0.0654297H0.303892C0.141093 0.0654297 0 0.195723 0 0.369448V12.6388C0 12.8125 0.141093 12.9428 0.303892 12.9428H6.5771C6.75075 12.9428 6.88099 12.8016 6.88099 12.6388V11.2816C6.88099 11.1078 6.7399 10.9775 6.5771 10.9775H2.38773C2.21407 10.9775 2.08383 10.8364 2.08383 10.6735V7.65504C2.08383 7.48132 2.22493 7.35102 2.38773 7.35102V7.32931Z" fill="white"/>
<path d="M16.5621 4.73429V3.02961C16.5621 1.05349 15.6504 0.0654297 13.8596 0.0654297H9.17102C8.99737 0.0654297 8.86713 0.206581 8.86713 0.369448V12.6388C8.86713 12.8125 8.99737 12.9971 9.17102 12.9428L10.6362 12.5628C10.8099 12.5085 10.9401 12.3673 10.9401 12.2045V7.65504H12.2642C12.3727 7.65504 12.4813 7.72019 12.5355 7.81791C12.5355 7.81791 14.6302 11.6616 15.3357 12.9537C15.39 13.0514 15.5419 13.0948 15.6721 13.0514C15.9001 12.9645 16.9637 12.313 16.9637 12.313C17.1156 12.2262 17.159 12.0416 17.0831 11.8896L14.8147 7.88306C14.7171 7.70933 14.8147 7.50303 14.9992 7.43788C16.0629 7.047 16.573 6.15666 16.573 4.73429H16.5621ZM10.9401 2.32386C10.9401 2.15013 11.0812 2.01984 11.244 2.01984H13.61C14.2178 2.01984 14.4783 2.33471 14.4783 3.07304V4.66914C14.4783 5.44005 14.2069 5.72235 13.4581 5.72235H11.244C11.0703 5.72235 10.9401 5.5812 10.9401 5.41833V2.33471V2.32386Z" fill="white"/>
<path d="M21.3483 0.293444L18.2877 11.8896C18.2551 12.0633 18.3419 12.237 18.5047 12.3348L19.8288 13.0839C19.9916 13.1382 20.1544 13.0188 20.1979 12.8559L21.077 9.39229C21.1095 9.25114 21.2398 9.16428 21.37 9.16428H24.0725C24.2136 9.16428 24.333 9.262 24.3655 9.39229L25.2446 12.8451C25.2881 13.0079 25.44 13.1382 25.6137 13.0731L26.9486 12.2588C27.1223 12.1393 27.1765 12.0199 27.1331 11.8462L24.0942 0.293444C24.0616 0.16315 23.9314 0.0654297 23.8012 0.0654297H21.6522C21.5111 0.0654297 21.3917 0.16315 21.3592 0.293444H21.3483ZM23.4538 7.28588H21.9887C21.7933 7.28588 21.6413 7.10129 21.6956 6.90585L22.4336 4.02853C22.5096 3.72451 22.9546 3.72451 23.0306 4.02853L23.7577 6.90585C23.812 7.10129 23.6601 7.28588 23.4647 7.28588H23.4538Z" fill="white"/>
<path d="M33.3958 0H31.1166C29.3475 0 28.4141 1.02063 28.4141 2.96418V10.0326C28.4141 11.9762 29.3475 12.9968 31.1166 12.9968H33.3958C35.1866 12.9968 36.0982 11.9979 36.0982 10.0326V2.96418C36.0982 0.998919 35.1866 0 33.3958 0ZM34.0253 3.00761V9.97833C34.0253 10.7275 33.7756 11.0315 33.157 11.0315H31.3771C30.7584 11.0315 30.4979 10.7167 30.4979 9.97833V3.00761C30.4979 2.28014 30.7693 1.95441 31.3771 1.95441H33.157C33.7648 1.95441 34.0253 2.26928 34.0253 3.00761Z" fill="white"/>
<path d="M43.9885 7.09044C43.9885 7.41617 43.5435 7.51389 43.4024 7.22073L40.1789 0.141434L40.1464 0.0654297H38.4207C38.2471 0.0654297 38.1168 0.206581 38.1168 0.369448V12.6388C38.1168 12.8125 38.2579 12.9428 38.4207 12.9428H39.8425C40.0161 12.9428 40.1464 12.8016 40.1464 12.6388V5.90693C40.1464 5.5812 40.6022 5.48348 40.7325 5.77664L43.9559 12.8668L43.9885 12.9428H45.7141C45.8878 12.9428 46.018 12.8016 46.018 12.6388V0.369448C46.018 0.195723 45.8769 0.0654297 45.7141 0.0654297H44.2923C44.1187 0.0654297 43.9885 0.206581 43.9885 0.369448V7.09044Z" fill="white"/>
<path d="M2.45291 24.333H6.18644C6.3601 24.333 6.49034 24.1918 6.49034 24.029V22.6717C6.49034 22.498 6.34924 22.3677 6.18644 22.3677H2.45291C2.27926 22.3677 2.14902 22.2266 2.14902 22.0637V19.3492C2.14902 19.1755 2.29011 19.0452 2.45291 19.0452H6.53375C6.7074 19.0452 6.83764 18.9041 6.83764 18.7412V17.3948C6.83764 17.2211 6.69655 17.0908 6.53375 17.0908H0.369078C0.195425 17.0908 0.0651855 17.232 0.0651855 17.3948V29.6642C0.0651855 29.8379 0.206278 29.9682 0.369078 29.9682H6.64228C6.81594 29.9682 6.94617 29.827 6.94617 29.6642V28.3069C6.94617 28.1332 6.80508 28.0029 6.64228 28.0029H2.45291C2.27926 28.0029 2.14902 27.8618 2.14902 27.6989V24.6804C2.14902 24.5067 2.29011 24.3764 2.45291 24.3764V24.333Z" fill="white"/>
<path d="M13.9032 17.0576H9.22544C9.05179 17.0576 8.92155 17.1988 8.92155 17.3616V29.631C8.92155 29.8047 9.06264 29.935 9.22544 29.935H13.9032C15.694 29.935 16.6057 28.9361 16.6057 26.9708V20.0218C16.6057 18.0565 15.694 17.0576 13.9032 17.0576ZM11.0054 19.3269C11.0054 19.1532 11.1465 19.0229 11.3093 19.0229H13.6644C14.2722 19.0229 14.5327 19.3378 14.5327 20.0761V26.9165C14.5327 27.6657 14.2831 27.9697 13.6644 27.9697H11.3093C11.1356 27.9697 11.0054 27.8286 11.0054 27.6657V19.3378V19.3269Z" fill="white"/>
<path d="M24.4418 17.6875C24.2682 17.7853 24.1379 17.9264 24.1379 18.1001V26.9818C24.1379 27.731 23.8883 28.035 23.2697 28.035H21.4897C20.8711 28.035 20.6106 27.7202 20.6106 26.9818V18.1001C20.6106 17.9264 20.4587 17.7744 20.3067 17.6875L18.9501 17.1121C18.7873 17.0469 18.5376 17.1989 18.5376 17.3727V27.0361C18.5376 28.9797 19.471 30.0003 21.2401 30.0003H23.5193C25.3101 30.0003 26.2218 29.0014 26.2218 27.0361V17.3727C26.2218 17.1989 25.983 17.0469 25.8093 17.1121L24.4527 17.6875H24.4418Z" fill="white"/>
<path d="M34.676 22.834H33.9051C33.8152 22.834 33.7423 22.9069 33.7423 22.9969V29.8264C33.7423 29.9164 33.8152 29.9893 33.9051 29.9893H34.676C34.766 29.9893 34.8389 29.9164 34.8389 29.8264V22.9969C34.8389 22.9069 34.766 22.834 34.676 22.834Z" fill="white"/>
<path d="M31.2569 22.877H30.0413C29.0645 22.877 28.5761 23.3981 28.5761 24.4405V28.1864C28.5761 29.2288 29.0645 29.7499 30.0413 29.7499H31.2569C32.2337 29.7499 32.7221 29.2288 32.7221 28.1864V24.4405C32.7221 23.3981 32.2337 22.877 31.2569 22.877ZM31.6259 24.5382V28.067C31.6259 28.5339 31.4848 28.6967 31.0833 28.6967H30.215C29.8134 28.6967 29.6723 28.5339 29.6723 28.067V24.5382C29.6723 24.0713 29.8134 23.9084 30.215 23.9084H31.0833C31.4848 23.9084 31.6259 24.0713 31.6259 24.5382Z" fill="white"/>
<path d="M37.107 28.4916V26.9498C37.107 26.8629 37.1721 26.7978 37.259 26.7869L39.8203 26.5589C39.9072 26.5589 39.9723 26.4829 39.9723 26.396V23.117C39.9723 23.0301 39.8963 22.9541 39.8095 22.9541H36.1845C36.0977 22.9541 36.0217 23.0301 36.0217 23.117V23.8119C36.0217 23.8987 36.0977 23.9747 36.1845 23.9747H38.7133C38.8001 23.9747 38.8761 24.0507 38.8761 24.1376V25.484C38.8761 25.5708 38.811 25.636 38.7242 25.6468L36.1628 25.8749C36.076 25.8749 36.0108 25.9509 36.0108 26.0377V29.5774C36.0108 29.6751 36.0868 29.7402 36.1845 29.7402L40.2762 29.5231C40.363 29.5231 40.439 29.4471 40.4281 29.3494L40.3847 28.6436C40.3847 28.5567 40.2979 28.4807 40.2111 28.4916L37.2698 28.6545C37.1721 28.6545 37.0962 28.5893 37.0962 28.4916H37.107Z" fill="white"/>
<path d="M41.937 22.834H41.1664C41.0796 22.834 41.0036 22.91 41.0036 22.9969V29.8264C41.0036 29.9133 41.0796 29.9893 41.1664 29.9893H41.937C42.0238 29.9893 42.0998 29.9133 42.0998 29.8264V26.8405C42.0998 26.7537 42.1758 26.6776 42.2626 26.6776H42.7836C42.8704 26.6776 42.9464 26.6016 42.9464 26.5148V25.7765C42.9464 25.6896 42.8704 25.6136 42.7836 25.6136H42.2626C42.1758 25.6136 42.0998 25.5376 42.0998 25.4507V22.9969C42.0998 22.91 42.0238 22.834 41.937 22.834Z" fill="white"/>
<path d="M47.2111 25.9069H48.4266C49.3274 25.9069 49.7833 25.516 49.7833 24.756V24.0611C49.7833 23.301 49.3274 22.9102 48.4266 22.9102H44.8884C43.9768 22.9102 43.5209 23.301 43.5209 24.0611V24.756C43.5209 25.516 43.9768 25.9069 44.8884 25.9069H46.104V26.4498H43.3798C43.293 26.4498 43.217 26.5258 43.217 26.6127V27.2859C43.217 27.3727 43.293 27.4487 43.3798 27.4487H49.9135C50.0003 27.4487 50.0763 27.3727 50.0763 27.2859V26.6127C50.0763 26.5258 50.0003 26.4498 49.9135 26.4498H47.2002V25.9069H47.2111ZM45.0838 24.9406C44.7039 24.9406 44.6388 24.8103 44.6388 24.5823V24.2457C44.6388 24.0177 44.7148 23.8874 45.0838 23.8874H48.2421C48.622 23.8874 48.698 24.0068 48.698 24.2457V24.5823C48.698 24.8103 48.622 24.9406 48.2421 24.9406H45.0838Z" fill="white"/>
<path d="M44.5633 27.796H43.7928C43.7059 27.796 43.63 27.872 43.63 27.9589V29.8264C43.63 29.9133 43.7059 29.9893 43.7928 29.9893H49.6535C49.7404 29.9893 49.8163 29.9133 49.8163 29.8264V29.1207C49.8163 29.0338 49.7404 28.9578 49.6535 28.9578H44.8889C44.8021 28.9578 44.7261 28.8818 44.7261 28.7949V27.948C44.7261 27.8612 44.6502 27.7852 44.5633 27.7852V27.796Z" fill="white"/>
<path d="M57.2296 22.834H56.5021C56.4121 22.834 56.3392 22.9069 56.3392 22.9969V29.8264C56.3392 29.9164 56.4121 29.9893 56.5021 29.9893H57.2296C57.3195 29.9893 57.3924 29.9164 57.3924 29.8264V22.9969C57.3924 22.9069 57.3195 22.834 57.2296 22.834Z" fill="white"/>
<path d="M54.7326 25.6144H54.0705V24.4309C54.0705 23.3452 53.6798 22.8674 52.8007 22.8674H52.0084C51.1401 22.8674 50.7385 23.3669 50.7385 24.4309V28.1769C50.7385 29.241 51.1401 29.7404 52.0084 29.7404H52.8007C53.6798 29.7404 54.0705 29.2627 54.0705 28.1769V26.6568H54.7326V29.697C54.7326 29.7838 54.8085 29.8598 54.8954 29.8598H55.6117C55.6985 29.8598 55.7745 29.7838 55.7745 29.697V23.0086C55.7745 22.9217 55.6985 22.8457 55.6117 22.8457H54.8954C54.8085 22.8457 54.7326 22.9217 54.7326 23.0086V25.6144ZM51.7913 24.4527C51.7913 24.0509 51.889 23.9098 52.1712 23.9098H52.6487C52.9526 23.9098 53.0286 24.0292 53.0286 24.4527V28.1769C53.0286 28.6003 52.9418 28.7198 52.6487 28.7198H52.1712C51.8781 28.7198 51.7913 28.5895 51.7913 28.1769V24.4527Z" fill="white"/>
<path d="M64.5223 25.6795H59.736C59.6492 25.6795 59.5732 25.6035 59.5732 25.5167V24.1377C59.5732 24.0509 59.6492 23.9749 59.736 23.9749H64.4572C64.544 23.9749 64.62 23.8988 64.62 23.812V23.1062C64.62 23.0194 64.544 22.9434 64.4572 22.9434H58.6398C58.553 22.9434 58.477 23.0194 58.477 23.1062V26.5373C58.477 26.6242 58.553 26.7002 58.6398 26.7002H64.5331C64.62 26.7002 64.6959 26.6242 64.6959 26.5373V25.8315C64.6959 25.7447 64.62 25.6687 64.5331 25.6687L64.5223 25.6795Z" fill="white"/>
<path d="M58.1297 27.4051V28.1217C58.1297 28.2085 58.2057 28.2845 58.2925 28.2845H59.4538C59.5407 28.2845 59.6166 28.3605 59.6166 28.4474V29.8263C59.6166 29.9132 59.6926 29.9892 59.7794 29.9892H60.55C60.6368 29.9892 60.7128 29.9132 60.7128 29.8263V28.4474C60.7128 28.3605 60.7888 28.2845 60.8756 28.2845H62.2648C62.3517 28.2845 62.4276 28.3605 62.4276 28.4474V29.8263C62.4276 29.9132 62.5036 29.9892 62.5904 29.9892H63.361C63.4478 29.9892 63.5238 29.9132 63.5238 29.8263V28.4474C63.5238 28.3605 63.5998 28.2845 63.6866 28.2845H64.8371C64.9239 28.2845 64.9999 28.2085 64.9999 28.1217V27.4051C64.9999 27.3182 64.9239 27.2422 64.8371 27.2422H58.3034C58.2166 27.2422 58.1406 27.3182 58.1406 27.4051H58.1297Z" fill="white"/>
</svg>
