<svg width="68" height="12" viewBox="0 0 68 12" fill="none" xmlns="http://www.w3.org/2000/svg">
<path d="M2.18522 6.70462H5.6021C5.76103 6.70462 5.88022 6.57549 5.88022 6.4265V5.1849C5.88022 5.02597 5.7511 4.90678 5.6021 4.90678H2.18522C2.02629 4.90678 1.9071 4.77765 1.9071 4.62866V2.14546C1.9071 1.98654 2.03623 1.86734 2.18522 1.86734H5.91995C6.07888 1.86734 6.19807 1.73821 6.19807 1.58922V0.337689C6.19807 0.178764 6.06895 0.0595703 5.91995 0.0595703H0.278119C0.129126 0.0595703 0 0.178764 0 0.337689V11.5618C0 11.7207 0.129126 11.8399 0.278119 11.8399H6.01928C6.17821 11.8399 6.2974 11.7108 6.2974 11.5618V10.3202C6.2974 10.1612 6.16827 10.042 6.01928 10.042H2.18522C2.02629 10.042 1.9071 9.91292 1.9071 9.76392V7.0026C1.9071 6.84368 2.03623 6.72448 2.18522 6.72448V6.70462Z" fill="#231815"/>
<path d="M15.1576 4.33068V2.77123C15.1576 0.963456 14.3232 0.0595703 12.6843 0.0595703H8.39335C8.23443 0.0595703 8.11523 0.188697 8.11523 0.337689V11.5618C8.11523 11.7207 8.23443 11.8895 8.39335 11.8399L9.73428 11.4922C9.89321 11.4426 10.0124 11.3134 10.0124 11.1644V7.0026H11.2242C11.3235 7.0026 11.4229 7.0622 11.4725 7.1516C11.4725 7.1516 13.3896 10.6678 14.0352 11.8498C14.0849 11.9392 14.2239 11.9789 14.3431 11.9392C14.5517 11.8597 15.5251 11.2638 15.5251 11.2638C15.6642 11.1843 15.7039 11.0155 15.6344 10.8764L13.5584 7.21119C13.469 7.05227 13.5584 6.86354 13.7273 6.80395C14.7007 6.44637 15.1675 5.63188 15.1675 4.33068H15.1576ZM10.0124 2.12559C10.0124 1.96667 10.1415 1.84748 10.2905 1.84748H12.4559C13.0121 1.84748 13.2505 2.13553 13.2505 2.81096V4.27108C13.2505 4.97631 13.0022 5.23456 12.3168 5.23456H10.2905C10.1316 5.23456 10.0124 5.10544 10.0124 4.95644V2.13553V2.12559Z" fill="#231815"/>
<path d="M19.5377 0.268159L16.7367 10.8764C16.7069 11.0353 16.7863 11.1942 16.9353 11.2836L18.1471 11.969C18.2961 12.0187 18.4451 11.9094 18.4848 11.7604L19.2894 8.59185C19.3192 8.46273 19.4384 8.38326 19.5576 8.38326H22.0309C22.16 8.38326 22.2692 8.47266 22.299 8.59185L23.1036 11.7505C23.1433 11.8995 23.2824 12.0187 23.4413 11.9591L24.663 11.2141C24.822 11.1049 24.8716 10.9956 24.8319 10.8367L22.0507 0.268159C22.0209 0.148966 21.9017 0.0595703 21.7825 0.0595703H19.8158C19.6867 0.0595703 19.5775 0.148966 19.5477 0.268159H19.5377ZM21.4647 6.66489H20.1238C19.945 6.66489 19.8059 6.49603 19.8556 6.31724L20.531 3.68505C20.6005 3.40693 21.0078 3.40693 21.0773 3.68505L21.7428 6.31724C21.7925 6.49603 21.6534 6.66489 21.4746 6.66489H21.4647Z" fill="#231815"/>
<path d="M30.5631 0H28.4772C26.8581 0 26.0039 0.933684 26.0039 2.71166V9.17792C26.0039 10.9559 26.8581 11.8896 28.4772 11.8896H30.5631C32.202 11.8896 33.0363 10.9758 33.0363 9.17792V2.71166C33.0363 0.913818 32.202 0 30.5631 0ZM31.1392 2.75139V9.12825C31.1392 9.81361 30.9107 10.0917 30.3445 10.0917H28.7156C28.1494 10.0917 27.911 9.80368 27.911 9.12825V2.75139C27.911 2.08589 28.1593 1.78791 28.7156 1.78791H30.3445C30.9008 1.78791 31.1392 2.07596 31.1392 2.75139Z" fill="#231815"/>
<path d="M40.2584 6.4861C40.2584 6.78408 39.8512 6.87348 39.722 6.60529L36.772 0.1291L36.7422 0.0595703H35.1629C35.004 0.0595703 34.8848 0.188697 34.8848 0.337689V11.5618C34.8848 11.7207 35.0139 11.8399 35.1629 11.8399H36.4641C36.623 11.8399 36.7422 11.7108 36.7422 11.5618V5.40342C36.7422 5.10544 37.1594 5.01604 37.2786 5.28423L40.2286 11.7704L40.2584 11.8399H41.8377C41.9967 11.8399 42.1159 11.7108 42.1159 11.5618V0.337689C42.1159 0.178764 41.9867 0.0595703 41.8377 0.0595703H40.5365C40.3776 0.0595703 40.2584 0.188697 40.2584 0.337689V6.4861Z" fill="#231815"/>
<path d="M46.2575 6.70462H49.6744C49.8333 6.70462 49.9525 6.57549 49.9525 6.4265V5.1849C49.9525 5.02597 49.8234 4.90678 49.6744 4.90678H46.2575C46.0986 4.90678 45.9794 4.77765 45.9794 4.62866V2.14546C45.9794 1.98654 46.1085 1.86734 46.2575 1.86734H49.9922C50.1511 1.86734 50.2703 1.73821 50.2703 1.58922V0.337689C50.2703 0.178764 50.1412 0.0595703 49.9922 0.0595703H44.3504C44.1915 0.0595703 44.0723 0.188697 44.0723 0.337689V11.5618C44.0723 11.7207 44.2014 11.8399 44.3504 11.8399H50.0915C50.2505 11.8399 50.3697 11.7108 50.3697 11.5618V10.3202C50.3697 10.1612 50.2405 10.042 50.0915 10.042H46.2575C46.0986 10.042 45.9794 9.91292 45.9794 9.76392V7.0026C45.9794 6.84368 46.1085 6.72448 46.2575 6.72448V6.70462Z" fill="#5436EA"/>
<path d="M56.7369 0.0595703H52.4559C52.2969 0.0595703 52.1777 0.188697 52.1777 0.337689V11.5618C52.1777 11.7207 52.3069 11.8399 52.4559 11.8399H56.7369C58.3758 11.8399 59.2102 10.9261 59.2102 9.12822V2.77123C59.2102 0.973389 58.3758 0.0595703 56.7369 0.0595703ZM54.0749 2.12559C54.0749 1.96667 54.204 1.84748 54.353 1.84748H56.5084C57.0647 1.84748 57.3031 2.13553 57.3031 2.81096V9.06863C57.3031 9.75399 57.0746 10.0321 56.5084 10.0321H54.353C54.1941 10.0321 54.0749 9.90298 54.0749 9.75399V2.12559Z" fill="#5436EA"/>
<path d="M66.38 0.625483C66.2211 0.714879 66.1019 0.844005 66.1019 1.00293V9.12797C66.1019 9.81333 65.8734 10.0914 65.3073 10.0914H63.6783C63.1121 10.0914 62.8737 9.8034 62.8737 9.12797V1.00293C62.8737 0.844005 62.7347 0.704946 62.5956 0.625483L61.354 0.0990446C61.205 0.0394477 60.9766 0.178507 60.9766 0.337432V9.17763C60.9766 10.9556 61.8308 11.8893 63.4498 11.8893H65.5357C67.1746 11.8893 68.009 10.9755 68.009 9.17763V0.337432C68.009 0.178507 67.7905 0.0394477 67.6315 0.0990446L66.3899 0.625483H66.38Z" fill="#5436EA"/>
</svg>
