<svg width="103" height="18" viewBox="0 0 103 18" fill="none" xmlns="http://www.w3.org/2000/svg">
<path d="M3.27783 10.0574H8.40315C8.64154 10.0574 8.82033 9.86373 8.82033 9.64024V7.77784C8.82033 7.53945 8.62664 7.36066 8.40315 7.36066H3.27783C3.03944 7.36066 2.86065 7.16697 2.86065 6.94348V3.21868C2.86065 2.98029 3.05434 2.8015 3.27783 2.8015H8.87993C9.11832 2.8015 9.29711 2.60781 9.29711 2.38432V0.507022C9.29711 0.268634 9.10342 0.0898438 8.87993 0.0898438H0.417178C0.19369 0.0898438 0 0.268634 0 0.507022V17.3431C0 17.5815 0.19369 17.7603 0.417178 17.7603H9.02892C9.26731 17.7603 9.4461 17.5666 9.4461 17.3431V15.4807C9.4461 15.2423 9.25241 15.0636 9.02892 15.0636H3.27783C3.03944 15.0636 2.86065 14.8699 2.86065 14.6464V10.5044C2.86065 10.266 3.05434 10.0872 3.27783 10.0872V10.0574Z" fill="#DBD4FF"/>
<path d="M22.7361 6.49651V4.15733C22.7361 1.44567 21.4846 0.0898438 19.0262 0.0898438H12.5898C12.3514 0.0898438 12.1726 0.283533 12.1726 0.507022V17.3431C12.1726 17.5815 12.3514 17.8348 12.5898 17.7603L14.6012 17.2388C14.8396 17.1643 15.0184 16.9706 15.0184 16.7472V10.5044H16.8361C16.9851 10.5044 17.134 10.5938 17.2085 10.7279C17.2085 10.7279 20.0841 16.0022 21.0525 17.7752C21.127 17.9093 21.3356 17.9689 21.5144 17.9093C21.8273 17.7901 23.2874 16.8962 23.2874 16.8962C23.496 16.777 23.5556 16.5237 23.4513 16.3151L20.3374 10.8173C20.2033 10.5789 20.3374 10.2958 20.5907 10.2064C22.0508 9.67004 22.751 8.4483 22.751 6.49651H22.7361ZM15.0184 3.18888C15.0184 2.95049 15.212 2.7717 15.4355 2.7717H18.6836C19.5179 2.7717 19.8755 3.20378 19.8755 4.21693V6.40711C19.8755 7.46495 19.503 7.85233 18.475 7.85233H15.4355C15.1971 7.85233 15.0184 7.65864 15.0184 7.43515V3.20378V3.18888Z" fill="#DBD4FF"/>
<path d="M29.3068 0.402727L25.1052 16.3151C25.0605 16.5535 25.1797 16.7919 25.4032 16.926L27.2209 17.954C27.4444 18.0285 27.6679 17.8646 27.7275 17.6411L28.9343 12.8883C28.979 12.6946 29.1578 12.5754 29.3366 12.5754H33.0465C33.2402 12.5754 33.4041 12.7095 33.4488 12.8883L34.6556 17.6262C34.7152 17.8497 34.9238 18.0285 35.1622 17.9391L36.9948 16.8217C37.2332 16.6578 37.3077 16.4939 37.2481 16.2555L33.0763 0.402727C33.0316 0.223937 32.8528 0.0898438 32.674 0.0898438H29.724C29.5303 0.0898438 29.3664 0.223937 29.3217 0.402727H29.3068ZM32.1973 9.99782H30.1859C29.9177 9.99782 29.7091 9.74453 29.7836 9.47635L30.7967 5.52806C30.901 5.11088 31.5119 5.11088 31.6162 5.52806L32.6144 9.47635C32.6889 9.74453 32.4804 9.99782 32.2122 9.99782H32.1973Z" fill="#DBD4FF"/>
<path d="M45.8448 0H42.716C40.2874 0 39.0061 1.40053 39.0061 4.06749V13.7669C39.0061 16.4338 40.2874 17.8344 42.716 17.8344H45.8448C48.3032 17.8344 49.5547 16.4636 49.5547 13.7669V4.06749C49.5547 1.37073 48.3032 0 45.8448 0ZM46.709 4.12708V13.6924C46.709 14.7204 46.3663 15.1376 45.5171 15.1376H43.0736C42.2243 15.1376 41.8668 14.7055 41.8668 13.6924V4.12708C41.8668 3.12883 42.2392 2.68186 43.0736 2.68186H45.5171C46.3514 2.68186 46.709 3.11394 46.709 4.12708Z" fill="#DBD4FF"/>
<path d="M60.3864 9.72963C60.3864 10.1766 59.7755 10.3107 59.5818 9.90842L55.1568 0.194138L55.1121 0.0898438H52.7431C52.5047 0.0898438 52.3259 0.283533 52.3259 0.507022V17.3431C52.3259 17.5815 52.5196 17.7603 52.7431 17.7603H54.6949C54.9333 17.7603 55.1121 17.5666 55.1121 17.3431V8.10562C55.1121 7.65864 55.7378 7.52455 55.9166 7.92683L60.3417 17.656L60.3864 17.7603H62.7554C62.9938 17.7603 63.1726 17.5666 63.1726 17.3431V0.507022C63.1726 0.268634 62.9789 0.0898438 62.7554 0.0898438H60.8036C60.5652 0.0898438 60.3864 0.283533 60.3864 0.507022V9.72963Z" fill="#DBD4FF"/>
<path d="M69.3857 10.0574H74.5111C74.7494 10.0574 74.9282 9.86373 74.9282 9.64024V7.77784C74.9282 7.53945 74.7346 7.36066 74.5111 7.36066H69.3857C69.1473 7.36066 68.9686 7.16697 68.9686 6.94348V3.21868C68.9686 2.98029 69.1622 2.8015 69.3857 2.8015H74.9878C75.2262 2.8015 75.405 2.60781 75.405 2.38432V0.507022C75.405 0.268634 75.2113 0.0898438 74.9878 0.0898438H66.5251C66.2867 0.0898438 66.1079 0.283533 66.1079 0.507022V17.3431C66.1079 17.5815 66.3016 17.7603 66.5251 17.7603H75.1368C75.3752 17.7603 75.554 17.5666 75.554 17.3431V15.4807C75.554 15.2423 75.3603 15.0636 75.1368 15.0636H69.3857C69.1473 15.0636 68.9686 14.8699 68.9686 14.6464V10.5044C68.9686 10.266 69.1622 10.0872 69.3857 10.0872V10.0574Z" fill="#DBD4FF"/>
<path d="M85.1044 0.0898438H78.6828C78.4444 0.0898438 78.2656 0.283533 78.2656 0.507022V17.3431C78.2656 17.5815 78.4593 17.7603 78.6828 17.7603H85.1044C87.5627 17.7603 88.8143 16.3896 88.8143 13.6928V4.15733C88.8143 1.46057 87.5627 0.0898438 85.1044 0.0898438ZM81.1114 3.18888C81.1114 2.95049 81.3051 2.7717 81.5286 2.7717H84.7617C85.596 2.7717 85.9536 3.20378 85.9536 4.21693V13.6034C85.9536 14.6315 85.6109 15.0487 84.7617 15.0487H81.5286C81.2902 15.0487 81.1114 14.855 81.1114 14.6315V3.18888Z" fill="#DBD4FF"/>
<path d="M99.5715 0.937737C99.3331 1.07183 99.1543 1.26552 99.1543 1.50391V13.6915C99.1543 14.7195 98.8116 15.1367 97.9624 15.1367H95.5189C94.6696 15.1367 94.3121 14.7046 94.3121 13.6915V1.50391C94.3121 1.26552 94.1035 1.05693 93.8949 0.937737L92.0325 0.148079C91.809 0.0586833 91.4663 0.267272 91.4663 0.50566V13.766C91.4663 16.4329 92.7476 17.8334 95.1762 17.8334H98.3051C100.763 17.8334 102.015 16.4627 102.015 13.766V0.50566C102.015 0.267272 101.687 0.0586833 101.449 0.148079L99.5864 0.937737H99.5715Z" fill="#DBD4FF"/>
</svg>
