<svg width="109" height="50" viewBox="0 0 109 50" fill="none" xmlns="http://www.w3.org/2000/svg">
<path d="M3.97954 12.2151H10.2021C10.4915 12.2151 10.7086 11.9799 10.7086 11.7084V9.44636C10.7086 9.15682 10.4734 8.93966 10.2021 8.93966H3.97954C3.69012 8.93966 3.47305 8.70441 3.47305 8.43297V3.90888C3.47305 3.61934 3.70821 3.40218 3.97954 3.40218H10.7809C11.0704 3.40218 11.2874 3.16693 11.2874 2.89548V0.615341C11.2874 0.325799 11.0523 0.108643 10.7809 0.108643H0.506487C0.235155 0.108643 0 0.325799 0 0.615341V21.0642C0 21.3538 0.235155 21.5709 0.506487 21.5709H10.9618C11.2512 21.5709 11.4683 21.3357 11.4683 21.0642V18.8022C11.4683 18.5126 11.2332 18.2955 10.9618 18.2955H3.97954C3.69012 18.2955 3.47305 18.0602 3.47305 17.7888V12.758C3.47305 12.4685 3.70821 12.2513 3.97954 12.2513V12.2151Z" fill="black"/>
<path d="M27.6043 7.89008V5.04895C27.6043 1.75541 26.0848 0.108643 23.1002 0.108643H15.2858C14.9964 0.108643 14.7793 0.343895 14.7793 0.615341V21.0642C14.7793 21.3538 14.9964 21.6614 15.2858 21.5709L17.7278 20.9375C18.0172 20.8471 18.2343 20.6118 18.2343 20.3404V12.758H20.4411C20.622 12.758 20.8029 12.8666 20.8933 13.0294C20.8933 13.0294 24.3845 19.4356 25.5602 21.589C25.6507 21.7519 25.9039 21.8243 26.121 21.7519C26.5009 21.6071 28.2736 20.5213 28.2736 20.5213C28.5268 20.3766 28.5992 20.0689 28.4725 19.8156L24.692 13.138C24.5292 12.8485 24.692 12.5046 24.9995 12.3961C26.7722 11.7446 27.6224 10.2607 27.6224 7.89008H27.6043ZM18.2343 3.87268C18.2343 3.58314 18.4694 3.36599 18.7407 3.36599H22.6841C23.6971 3.36599 24.1312 3.89078 24.1312 5.12133V7.7815C24.1312 9.06634 23.679 9.53684 22.4309 9.53684H18.7407C18.4513 9.53684 18.2343 9.30159 18.2343 9.03015V3.89078V3.87268Z" fill="black"/>
<path d="M35.5811 0.488666L30.48 19.8156C30.4258 20.1051 30.5705 20.3947 30.8418 20.5575L33.0487 21.8062C33.32 21.8967 33.5913 21.6976 33.6637 21.4261L35.1289 15.6534C35.1831 15.4182 35.4002 15.2734 35.6173 15.2734H40.1214C40.3565 15.2734 40.5555 15.4363 40.6098 15.6534L42.075 21.4081C42.1473 21.6795 42.4006 21.8967 42.69 21.7881L44.9149 20.4308C45.2043 20.2318 45.2948 20.0327 45.2224 19.7432L40.1576 0.488666C40.1033 0.27151 39.8862 0.108643 39.6692 0.108643H36.0876C35.8524 0.108643 35.6534 0.27151 35.5992 0.488666H35.5811ZM39.0903 12.1427H36.6483C36.3227 12.1427 36.0695 11.8351 36.1599 11.5093L37.39 6.71381C37.5166 6.20711 38.2582 6.20711 38.3849 6.71381L39.5968 11.5093C39.6873 11.8351 39.434 12.1427 39.1084 12.1427H39.0903Z" fill="black"/>
<path d="M55.6602 0H51.8615C48.9131 0 47.3574 1.70106 47.3574 4.94031V16.721C47.3574 19.9603 48.9131 21.6613 51.8615 21.6613H55.6602C58.6448 21.6613 60.1643 19.9965 60.1643 16.721V4.94031C60.1643 1.66486 58.6448 0 55.6602 0ZM56.7093 5.01269V16.6306C56.7093 17.8792 56.2933 18.3859 55.2622 18.3859H52.2957C51.2646 18.3859 50.8305 17.8611 50.8305 16.6306V5.01269C50.8305 3.80023 51.2827 3.25734 52.2957 3.25734H55.2622C56.2752 3.25734 56.7093 3.78214 56.7093 5.01269Z" fill="black"/>
<path d="M73.3134 11.817C73.3134 12.3599 72.5718 12.5227 72.3366 12.0341L66.9642 0.235317L66.91 0.108643H64.0338C63.7444 0.108643 63.5273 0.343895 63.5273 0.615341V21.0642C63.5273 21.3538 63.7625 21.5709 64.0338 21.5709H66.4035C66.6929 21.5709 66.91 21.3357 66.91 21.0642V9.84448C66.91 9.30159 67.6697 9.13873 67.8867 9.62733L73.2591 21.4442L73.3134 21.5709H76.1895C76.4789 21.5709 76.696 21.3357 76.696 21.0642V0.615341C76.696 0.325799 76.4609 0.108643 76.1895 0.108643H73.8199C73.5305 0.108643 73.3134 0.343895 73.3134 0.615341V11.817Z" fill="black"/>
<path d="M4.08892 40.5545H10.3115C10.6009 40.5545 10.818 40.3192 10.818 40.0478V37.7857C10.818 37.4962 10.5828 37.279 10.3115 37.279H4.08892C3.79949 37.279 3.58243 37.0438 3.58243 36.7723V32.2482C3.58243 31.9587 3.81758 31.7416 4.08892 31.7416H10.8903C11.1797 31.7416 11.3968 31.5063 11.3968 31.2349V28.9909C11.3968 28.7014 11.1616 28.4842 10.8903 28.4842H0.615862C0.326441 28.4842 0.109375 28.7195 0.109375 28.9909V49.4398C0.109375 49.7293 0.34453 49.9465 0.615862 49.9465H11.0712C11.3606 49.9465 11.5777 49.7112 11.5777 49.4398V47.1777C11.5777 46.8882 11.3425 46.671 11.0712 46.671H4.08892C3.79949 46.671 3.58243 46.4358 3.58243 46.1643V41.1336C3.58243 40.844 3.81758 40.6269 4.08892 40.6269V40.5545Z" fill="black"/>
<path d="M23.1719 28.4293H15.3756C15.0862 28.4293 14.8691 28.6645 14.8691 28.936V49.3849C14.8691 49.6744 15.1043 49.8916 15.3756 49.8916H23.1719C26.1566 49.8916 27.676 48.2267 27.676 44.9513V33.3696C27.676 30.0941 26.1566 28.4293 23.1719 28.4293ZM18.3422 32.2114C18.3422 31.9219 18.5773 31.7047 18.8487 31.7047H22.774C23.7869 31.7047 24.2211 32.2295 24.2211 33.4601V44.8608C24.2211 46.1094 23.805 46.6161 22.774 46.6161H18.8487C18.5593 46.6161 18.3422 46.3809 18.3422 46.1094V32.2295V32.2114Z" fill="black"/>
<path d="M40.7368 29.4787C40.4474 29.6416 40.2303 29.8769 40.2303 30.1664V44.9692C40.2303 46.2179 39.8143 46.7246 38.7832 46.7246H35.8166C34.7856 46.7246 34.3514 46.1998 34.3514 44.9692V30.1664C34.3514 29.8769 34.0982 29.6235 33.845 29.4787L31.5839 28.5196C31.3125 28.4111 30.8965 28.6644 30.8965 28.9539V45.0597C30.8965 48.2989 32.4521 50 35.4006 50H39.1993C42.1839 50 43.7034 48.3351 43.7034 45.0597V28.9539C43.7034 28.6644 43.3054 28.4111 43.016 28.5196L40.7549 29.4787H40.7368Z" fill="black"/>
<path d="M57.7926 38.0561H56.5078C56.3579 38.0561 56.2363 38.1777 56.2363 38.3276V49.7102C56.2363 49.8601 56.3579 49.9816 56.5078 49.9816H57.7926C57.9425 49.9816 58.0641 49.8601 58.0641 49.7102V38.3276C58.0641 38.1777 57.9425 38.0561 57.7926 38.0561Z" fill="black"/>
<path d="M52.0949 38.1285H50.0689C48.4409 38.1285 47.627 38.9972 47.627 40.7344V46.9777C47.627 48.7149 48.4409 49.5835 50.0689 49.5835H52.0949C53.7229 49.5835 54.5369 48.7149 54.5369 46.9777V40.7344C54.5369 38.9972 53.7229 38.1285 52.0949 38.1285ZM52.7099 40.8973V46.7786C52.7099 47.5567 52.4748 47.8282 51.8055 47.8282H50.3584C49.6891 47.8282 49.4539 47.5567 49.4539 46.7786V40.8973C49.4539 40.1191 49.6891 39.8477 50.3584 39.8477H51.8055C52.4748 39.8477 52.7099 40.1191 52.7099 40.8973Z" fill="black"/>
<path d="M61.8446 47.485V44.9154C61.8446 44.7706 61.9531 44.662 62.0978 44.6439L66.3668 44.2639C66.5115 44.2639 66.62 44.1372 66.62 43.9925V38.5274C66.62 38.3826 66.4934 38.2559 66.3487 38.2559H60.307C60.1623 38.2559 60.0357 38.3826 60.0357 38.5274V39.6855C60.0357 39.8303 60.1623 39.957 60.307 39.957H64.5217C64.6664 39.957 64.793 40.0836 64.793 40.2284V42.4724C64.793 42.6171 64.6845 42.7257 64.5398 42.7438L60.2708 43.1238C60.1261 43.1238 60.0176 43.2505 60.0176 43.3953V49.2947C60.0176 49.4576 60.1442 49.5661 60.307 49.5661L67.1265 49.2042C67.2712 49.2042 67.3978 49.0775 67.3797 48.9147L67.3074 47.7384C67.3074 47.5936 67.1627 47.467 67.018 47.485L62.1159 47.7565C61.9531 47.7565 61.8265 47.6479 61.8265 47.485H61.8446Z" fill="black"/>
<path d="M69.8955 38.0561H68.6112C68.4665 38.0561 68.3398 38.1828 68.3398 38.3276V49.7102C68.3398 49.8549 68.4665 49.9816 68.6112 49.9816H69.8955C70.0402 49.9816 70.1668 49.8549 70.1668 49.7102V44.7337C70.1668 44.5889 70.2934 44.4622 70.4382 44.4622H71.3064C71.4511 44.4622 71.5777 44.3356 71.5777 44.1908V42.9602C71.5777 42.8155 71.4511 42.6888 71.3064 42.6888H70.4382C70.2934 42.6888 70.1668 42.5621 70.1668 42.4173V38.3276C70.1668 38.1828 70.0402 38.0561 69.8955 38.0561Z" fill="black"/>
<path d="M78.686 43.1781H80.7119C82.2133 43.1781 82.973 42.5266 82.973 41.2599V40.1017C82.973 38.8349 82.2133 38.1835 80.7119 38.1835H74.815C73.2955 38.1835 72.5358 38.8349 72.5358 40.1017V41.2599C72.5358 42.5266 73.2955 43.1781 74.815 43.1781H76.8409V44.0829H72.3006C72.1559 44.0829 72.0293 44.2096 72.0293 44.3543V45.4763C72.0293 45.6211 72.1559 45.7477 72.3006 45.7477H83.1901C83.3348 45.7477 83.4614 45.6211 83.4614 45.4763V44.3543C83.4614 44.2096 83.3348 44.0829 83.1901 44.0829H78.6679V43.1781H78.686ZM75.1406 41.5675C74.5075 41.5675 74.3989 41.3503 74.3989 40.9703V40.4093C74.3989 40.0293 74.5256 39.8121 75.1406 39.8121H80.4044C81.0375 39.8121 81.1642 40.0112 81.1642 40.4093V40.9703C81.1642 41.3503 81.0375 41.5675 80.4044 41.5675H75.1406Z" fill="black"/>
<path d="M74.2724 46.3266H72.9881C72.8434 46.3266 72.7168 46.4532 72.7168 46.598V49.7106C72.7168 49.8553 72.8434 49.982 72.9881 49.982H82.7561C82.9008 49.982 83.0274 49.8553 83.0274 49.7106V48.5343C83.0274 48.3895 82.9008 48.2629 82.7561 48.2629H74.8151C74.6704 48.2629 74.5438 48.1362 74.5438 47.9914V46.5799C74.5438 46.4351 74.4171 46.3085 74.2724 46.3085V46.3266Z" fill="black"/>
<path d="M95.3823 38.0561H94.1699C94.02 38.0561 93.8984 38.1777 93.8984 38.3276V49.7102C93.8984 49.8601 94.02 49.9816 94.1699 49.9816H95.3823C95.5323 49.9816 95.6538 49.8601 95.6538 49.7102V38.3276C95.6538 38.1777 95.5323 38.0561 95.3823 38.0561Z" fill="black"/>
<path d="M91.2211 42.6894H90.1177V40.7169C90.1177 38.9073 89.4665 38.111 88.0013 38.111H86.6808C85.2337 38.111 84.5645 38.9435 84.5645 40.7169V46.9601C84.5645 48.7336 85.2337 49.566 86.6808 49.566H88.0013C89.4665 49.566 90.1177 48.7698 90.1177 46.9601V44.4266H91.2211V49.4936C91.2211 49.6384 91.3478 49.7651 91.4925 49.7651H92.6863C92.831 49.7651 92.9577 49.6384 92.9577 49.4936V38.3463C92.9577 38.2015 92.831 38.0748 92.6863 38.0748H91.4925C91.3478 38.0748 91.2211 38.2015 91.2211 38.3463V42.6894ZM86.3191 40.7531C86.3191 40.0835 86.4819 39.8483 86.9522 39.8483H87.7481C88.2546 39.8483 88.3812 40.0473 88.3812 40.7531V46.9601C88.3812 47.6659 88.2365 47.865 87.7481 47.865H86.9522C86.4638 47.865 86.3191 47.6478 86.3191 46.9601V40.7531Z" fill="black"/>
<path d="M107.536 42.7979H99.5592C99.4145 42.7979 99.2879 42.6712 99.2879 42.5264V40.2282C99.2879 40.0834 99.4145 39.9567 99.5592 39.9567H107.428C107.573 39.9567 107.699 39.8301 107.699 39.6853V38.509C107.699 38.3643 107.573 38.2376 107.428 38.2376H97.7323C97.5876 38.2376 97.4609 38.3643 97.4609 38.509V44.2275C97.4609 44.3723 97.5876 44.4989 97.7323 44.4989H107.554C107.699 44.4989 107.826 44.3723 107.826 44.2275V43.0512C107.826 42.9065 107.699 42.7798 107.554 42.7798L107.536 42.7979Z" fill="black"/>
<path d="M96.8828 45.6749V46.8693C96.8828 47.0141 97.0094 47.1408 97.1541 47.1408H99.0897C99.2344 47.1408 99.361 47.2674 99.361 47.4122V49.7104C99.361 49.8552 99.4876 49.9819 99.6323 49.9819H100.917C101.061 49.9819 101.188 49.8552 101.188 49.7104V47.4122C101.188 47.2674 101.315 47.1408 101.459 47.1408H103.775C103.919 47.1408 104.046 47.2674 104.046 47.4122V49.7104C104.046 49.8552 104.173 49.9819 104.317 49.9819H105.602C105.746 49.9819 105.873 49.8552 105.873 49.7104V47.4122C105.873 47.2674 106 47.1408 106.144 47.1408H108.062C108.206 47.1408 108.333 47.0141 108.333 46.8693V45.6749C108.333 45.5302 108.206 45.4035 108.062 45.4035H97.1722C97.0275 45.4035 96.9009 45.5302 96.9009 45.6749H96.8828Z" fill="black"/>
</svg>
